<svg width="300" height="300" xmlns="http://www.w3.org/2000/svg">
  <defs>
    <linearGradient id="catGradient" x1="0%" y1="0%" x2="100%" y2="100%">
      <stop offset="0%" style="stop-color:#ff6b6b;stop-opacity:1" />
      <stop offset="50%" style="stop-color:#feca57;stop-opacity:1" />
      <stop offset="100%" style="stop-color:#48dbfb;stop-opacity:1" />
    </linearGradient>
  </defs>
  
  <!-- Background -->
  <rect width="300" height="300" fill="url(#catGradient)"/>
  
  <!-- Cat Head -->
  <ellipse cx="150" cy="120" rx="80" ry="70" fill="#ff9ff3" stroke="#000000" stroke-width="3"/>
  
  <!-- Cat Ears -->
  <polygon points="100,60 120,40 140,60" fill="#ff9ff3" stroke="#000000" stroke-width="2"/>
  <polygon points="160,60 180,40 200,60" fill="#ff9ff3" stroke="#000000" stroke-width="2"/>
  
  <!-- Inner Ears -->
  <polygon points="110,50 120,45 130,50" fill="#ff6b6b"/>
  <polygon points="170,50 180,45 190,50" fill="#ff6b6b"/>
  
  <!-- Cat Eyes -->
  <ellipse cx="130" cy="110" rx="15" ry="20" fill="#ffffff"/>
  <ellipse cx="170" cy="110" rx="15" ry="20" fill="#ffffff"/>
  <ellipse cx="130" cy="110" rx="8" ry="12" fill="#000000"/>
  <ellipse cx="170" cy="110" rx="8" ry="12" fill="#000000"/>
  
  <!-- Eye Highlights -->
  <ellipse cx="135" cy="105" rx="3" ry="4" fill="#ffffff"/>
  <ellipse cx="175" cy="105" rx="3" ry="4" fill="#ffffff"/>
  
  <!-- Cat Nose -->
  <polygon points="150,130 145,140 155,140" fill="#ff6b6b"/>
  
  <!-- Cat Mouth -->
  <path d="M 150 140 Q 140 150 130 145" stroke="#000000" stroke-width="2" fill="none"/>
  <path d="M 150 140 Q 160 150 170 145" stroke="#000000" stroke-width="2" fill="none"/>
  
  <!-- Cat Whiskers -->
  <line x1="100" y1="120" x2="80" y2="115" stroke="#000000" stroke-width="2"/>
  <line x1="100" y1="130" x2="80" y2="135" stroke="#000000" stroke-width="2"/>
  <line x1="200" y1="120" x2="220" y2="115" stroke="#000000" stroke-width="2"/>
  <line x1="200" y1="130" x2="220" y2="135" stroke="#000000" stroke-width="2"/>
  
  <!-- Cat Body -->
  <ellipse cx="150" cy="220" rx="60" ry="50" fill="#ff9ff3" stroke="#000000" stroke-width="3"/>
  
  <!-- Cat Tail -->
  <path d="M 90 200 Q 60 180 40 200 Q 50 220 70 210" fill="#ff9ff3" stroke="#000000" stroke-width="2"/>
  
  <!-- Cat Paws -->
  <ellipse cx="120" cy="250" rx="15" ry="20" fill="#ff9ff3" stroke="#000000" stroke-width="2"/>
  <ellipse cx="180" cy="250" rx="15" ry="20" fill="#ff9ff3" stroke="#000000" stroke-width="2"/>
  
  <!-- Decorative Hearts -->
  <path d="M 50 50 Q 45 40 40 50 Q 40 60 50 70 Q 60 60 60 50 Q 55 40 50 50" fill="#ff6b6b" opacity="0.7"/>
  <path d="M 250 50 Q 245 40 240 50 Q 240 60 250 70 Q 260 60 260 50 Q 255 40 250 50" fill="#ff6b6b" opacity="0.7"/>
  <path d="M 50 250 Q 45 240 40 250 Q 40 260 50 270 Q 60 260 60 250 Q 55 240 50 250" fill="#ff6b6b" opacity="0.7"/>
  <path d="M 250 250 Q 245 240 240 250 Q 240 260 250 270 Q 260 260 260 250 Q 255 240 250 250" fill="#ff6b6b" opacity="0.7"/>
</svg>
